<svg width="800" height="800" viewBox="0 0 800 800" xmlns="http://www.w3.org/2000/svg">
  <defs>
    <!-- Enhanced Gradients for Realistic Look -->
    <radialGradient id="tyreRubber" cx="50%" cy="50%" r="50%">
      <stop offset="0%" stop-color="#2d3748"/>
      <stop offset="70%" stop-color="#1a202c"/>
      <stop offset="100%" stop-color="#000000"/>
    </radialGradient>
    
    <radialGradient id="sidewallGradient" cx="30%" cy="30%">
      <stop offset="0%" stop-color="#4a5568"/>
      <stop offset="50%" stop-color="#2d3748"/>
      <stop offset="100%" stop-color="#1a202c"/>
    </radialGradient>
    
    <linearGradient id="rimShine" x1="0%" y1="0%" x2="100%" y2="100%">
      <stop offset="0%" stop-color="#f7fafc"/>
      <stop offset="25%" stop-color="#e2e8f0"/>
      <stop offset="50%" stop-color="#cbd5e0"/>
      <stop offset="75%" stop-color="#e2e8f0"/>
      <stop offset="100%" stop-color="#f7fafc"/>
    </linearGradient>
    
    <radialGradient id="spokeGradient" cx="50%" cy="50%">
      <stop offset="0%" stop-color="#a0aec0"/>
      <stop offset="50%" stop-color="#718096"/>
      <stop offset="100%" stop-color="#4a5568"/>
    </radialGradient>
    
    <filter id="shadow">
      <feGaussianBlur in="SourceAlpha" stdDeviation="8"/>
      <feOffset dx="0" dy="10" result="offsetblur"/>
      <feComponentTransfer>
        <feFuncA type="linear" slope="0.5"/>
      </feComponentTransfer>
      <feMerge>
        <feMergeNode/>
        <feMergeNode in="SourceGraphic"/>
      </feMerge>
    </filter>
    
    <filter id="innerShadow">
      <feGaussianBlur in="SourceAlpha" stdDeviation="3"/>
      <feOffset dx="2" dy="2"/>
      <feComposite operator="arithmetic" k2="-1" k3="1"/>
      <feColorMatrix values="0 0 0 0 0 0 0 0 0 0 0 0 0 0 0 0 0 0 0.3 0"/>
    </filter>
  </defs>
  
  <!-- Ground Shadow -->
  <ellipse cx="400" cy="750" rx="300" ry="30" fill="#000" opacity="0.3"/>
  
  <!-- Outer Tyre Rubber -->
  <circle cx="400" cy="400" r="340" fill="url(#tyreRubber)" filter="url(#shadow)"/>
  
  <!-- Realistic Tread Pattern -->
  <g opacity="0.8">
    <!-- Outer Grooves -->
    <circle cx="400" cy="400" r="335" fill="none" stroke="#000" stroke-width="3"/>
    <circle cx="400" cy="400" r="325" fill="none" stroke="#1a202c" stroke-width="8" stroke-dasharray="25 15"/>
    <circle cx="400" cy="400" r="315" fill="none" stroke="#000" stroke-width="2"/>
    
    <!-- Middle Tread Blocks -->
    <circle cx="400" cy="400" r="305" fill="none" stroke="#2d3748" stroke-width="12" stroke-dasharray="20 10"/>
    <circle cx="400" cy="400" r="295" fill="none" stroke="#1a202c" stroke-width="6" stroke-dasharray="18 12"/>
    <circle cx="400" cy="400" r="285" fill="none" stroke="#2d3748" stroke-width="10" stroke-dasharray="22 8"/>
    
    <!-- Inner Grooves -->
    <circle cx="400" cy="400" r="270" fill="none" stroke="#1a202c" stroke-width="8" stroke-dasharray="30 10"/>
    <circle cx="400" cy="400" r="260" fill="none" stroke="#000" stroke-width="3"/>
  </g>
  
  <!-- Sidewall with Brand Text Ring -->
  <circle cx="400" cy="400" r="245" fill="url(#sidewallGradient)"/>
  
  <!-- Sidewall Text -->
  <path id="textPath" d="M 400,155 A 245,245 0 1,1 399,155" fill="none"/>
  <text font-family="Arial, sans-serif" font-size="16" font-weight="bold" fill="#718096" letter-spacing="3">
    <textPath href="#textPath" startOffset="25%">
      LASANTHA • PREMIUM • 225/45R17 • 94W
    </textPath>
  </text>
  
  <!-- Rim Outer Border -->
  <circle cx="400" cy="400" r="220" fill="none" stroke="#cbd5e0" stroke-width="6"/>
  <circle cx="400" cy="400" r="215" fill="url(#rimShine)"/>
  
  <!-- Modern Multi-Spoke Design (10 spokes) -->
  <g transform="translate(400,400)" filter="url(#innerShadow)">
    <g id="spoke">
      <path d="M 0,-210 Q 15,-180 20,-100 L 25,-50 Q 25,-35 20,-20 L 0,-15 L -20,-20 Q -25,-35 -25,-50 L -20,-100 Q -15,-180 0,-210 Z" 
            fill="url(#spokeGradient)" stroke="#4a5568" stroke-width="1"/>
      <path d="M 0,-210 Q 8,-180 10,-100 L 0,-15" 
            fill="none" stroke="#e2e8f0" stroke-width="1" opacity="0.6"/>
    </g>
    <use href="#spoke" transform="rotate(36)"/>
    <use href="#spoke" transform="rotate(72)"/>
    <use href="#spoke" transform="rotate(108)"/>
    <use href="#spoke" transform="rotate(144)"/>
    <use href="#spoke" transform="rotate(180)"/>
    <use href="#spoke" transform="rotate(216)"/>
    <use href="#spoke" transform="rotate(252)"/>
    <use href="#spoke" transform="rotate(288)"/>
    <use href="#spoke" transform="rotate(324)"/>
  </g>
  
  <!-- Center Hub -->
  <circle cx="400" cy="400" r="80" fill="#2d3748" stroke="#4a5568" stroke-width="3"/>
  <circle cx="400" cy="400" r="75" fill="url(#spokeGradient)"/>
  
  <!-- Center Cap with Logo -->
  <circle cx="400" cy="400" r="60" fill="#1a202c" stroke="#718096" stroke-width="2"/>
  <circle cx="400" cy="400" r="55" fill="linear-gradient(135deg, #2d3748 0%, #1a202c 100%)"/>
  
  <!-- Brand Name -->
  <text x="400" y="395" font-family="Arial, sans-serif" font-weight="bold" font-size="16" fill="#fbbf24" text-anchor="middle" letter-spacing="2">LASANTHA</text>
  <text x="400" y="415" font-family="Arial, sans-serif" font-weight="normal" font-size="10" fill="#cbd5e0" text-anchor="middle" letter-spacing="1">TIRE TRADERS</text>
  
  <!-- Realistic Light Reflections -->
  <ellipse cx="350" cy="320" rx="60" ry="120" fill="white" opacity="0.08" transform="rotate(-30 350 320)"/>
  <ellipse cx="480" cy="360" rx="40" ry="80" fill="white" opacity="0.05" transform="rotate(-45 480 360)"/>
  <path d="M 300,250 Q 350,240 400,250" fill="none" stroke="white" stroke-width="3" opacity="0.15"/>
</svg>