<svg xmlns="http://www.w3.org/2000/svg" viewBox="0 0 100 100">
  <defs>
    <linearGradient id="grad" x1="0%" y1="0%" x2="100%" y2="100%">
      <stop offset="0%" style="stop-color:#25D366;stop-opacity:1" />
      <stop offset="100%" style="stop-color:#128C7E;stop-opacity:1" />
    </linearGradient>
  </defs>
  <circle cx="50" cy="50" r="48" fill="url(#grad)"/>
  <path d="M50 20 C33 20 20 33 20 50 C20 55 21 60 23 64 L20 80 L36 77 C40 79 45 80 50 80 C67 80 80 67 80 50 C80 33 67 20 50 20 Z" fill="white"/>
  <path d="M42 38 L38 38 C37 38 35 39 35 41 C35 44 37 47 37 47 C37 47 42 56 50 60 C58 64 63 62 63 62 C65 62 66 60 66 58 L66 54 C66 53 65 52 64 52 L60 50 C59 50 58 50 57 51 L55 53 C55 53 54 53 53 53 C50 52 46 48 45 45 C45 44 45 43 45 43 L47 41 C48 40 48 39 48 38 L46 34 C46 33 45 32 44 32 L42 32 C41 32 40 33 40 34 C40 35 41 37 42 38 Z" fill="#25D366"/>
</svg>
